<svg id="visual" viewBox="0 0 900 600" width="900" height="600" xmlns="http://www.w3.org/2000/svg" xmlns:xlink="http://www.w3.org/1999/xlink" version="1.1"><rect x="0" y="0" width="900" height="600" fill="#ffffff"></rect><path d="M0 547L21.5 542.3C43 537.7 86 528.3 128.8 526.2C171.7 524 214.3 529 257.2 534.7C300 540.3 343 546.7 385.8 543.2C428.7 539.7 471.3 526.3 514.2 527.5C557 528.7 600 544.3 642.8 552.2C685.7 560 728.3 560 771.2 553C814 546 857 532 878.5 525L900 518L900 601L878.5 601C857 601 814 601 771.2 601C728.3 601 685.7 601 642.8 601C600 601 557 601 514.2 601C471.3 601 428.7 601 385.8 601C343 601 300 601 257.2 601C214.3 601 171.7 601 128.8 601C86 601 43 601 21.5 601L0 601Z" fill="#fa0050" stroke-linecap="round" stroke-linejoin="miter"></path></svg>